<?xml version="1.0" encoding="utf-8"?>
<!-- Generator: Adobe Illustrator 27.0.1, SVG Export Plug-In . SVG Version: 6.00 Build 0)  -->
<svg version="1.1" id="Livello_1" xmlns="http://www.w3.org/2000/svg" xmlns:xlink="http://www.w3.org/1999/xlink" x="0px" y="0px"
	 viewBox="0 0 240 240" style="enable-background:new 0 0 240 240;" xml:space="preserve">
<style type="text/css">
	.st0{fill:#21243D;}
	.st1{fill:#FFFFFF;}
</style>
<circle class="st0" cx="120" cy="120" r="120"/>
<path class="st1" d="M179,70.1c-0.2-1-0.9-1.8-1.9-2.1c-1.9-0.7-5.1,0.4-5.1,0.4S58.4,109.3,51.9,113.8c-1.4,1-1.9,1.5-2.1,2.2
	c-1.1,3.2,2.4,4.6,2.4,4.6l28.3,9.2l0,0l17.2,41v0c0.6,1.5,2.5,2.1,7.5-2.9c6.3-6.3,12.4-11.5,15.4-14.1c10.1,7,20.9,14.6,25.6,18.7
	c1.6,1.5,3.7,2.4,5.9,2.3c4.4-0.2,5.7-5,5.7-5s20.7-83.3,21.4-94.5c0.1-1.1,0.2-1.8,0.2-2.5C179.3,71.8,179.2,71,179,70.1z
	 M100.5,138.4c0,0-0.2,0.2-0.3,0.5l-0.1,0.4l-0.8,9c-1.3,2.1-2.8,0.1-2.8,0.1l-7.6-16.9c-0.7-2.4-0.1-4.4,1.7-6.1
	c18.1-11.4,60-37.7,62.9-38.8c0.5-0.2,1,0,0.8,0.4C152.9,91.8,100.5,138.4,100.5,138.4z"/>
</svg>
